<?xml version="1.0" encoding="utf-8"?>
<!-- Generator: Adobe Illustrator 15.0.0, SVG Export Plug-In . SVG Version: 6.00 Build 0)  -->
<!DOCTYPE svg PUBLIC "-//W3C//DTD SVG 1.1//EN" "http://www.w3.org/Graphics/SVG/1.1/DTD/svg11.dtd">
<svg version="1.1" id="drawing" xmlns="http://www.w3.org/2000/svg" xmlns:xlink="http://www.w3.org/1999/xlink" x="0px" y="0px"
	 width="1584px" height="893px" viewBox="0 0 1584 893" enable-background="new 0 0 1584 893" xml:space="preserve">
<image overflow="visible" enable-background="new    " width="1255" height="834" id="background" xlink:href="img/background.png"  transform="matrix(0.9999 0 0 0.9999 0 59.1035)">
</image>
<g id="flow_marks" display="none">
	<path display="inline" fill-rule="evenodd" clip-rule="evenodd" fill="#92E3FC" d="M183.558,462.634
		c-2.167,4.133-5.9,6.833-11.2,8.1c13.433-5.2,13.316-12.2-0.35-21C181.875,454.167,185.725,458.467,183.558,462.634z
		 M142.508,526.033c0.367-0.033,0.717-0.083,1.05-0.149l0.2,0.2C143.458,526.117,143.042,526.101,142.508,526.033z M158.908,485.334
		c0.711-0.35,1.402-0.7,2.075-1.051h0.175c-2.12,1.012-4.454,2.262-7,3.75l-0.3-0.149C155.525,487.05,157.208,486.2,158.908,485.334
		z"/>
	<path display="inline" fill-rule="evenodd" clip-rule="evenodd" fill="#92E3FC" d="M76.958,786.584
		c-5.733-7.167-11.983-13.017-18.75-17.551v-0.3c1.466,1.101,2.966,2.233,4.5,3.4c24.167,18.467,50.25,30.066,78.25,34.8
		c27.961,4.73,49.028,19.572,63.2,44.525c14.175,24.956,45.875,37.015,95.1,36.175c-8.724,4.353-24.674,4.369-47.85,0.05
		c-33.233-8.467-54.3-22.884-63.2-43.25c-8.9-20.4-27.083-31.9-54.55-34.5S87.292,799.55,76.958,786.584z M53.358,753.134
		c-1.4-1.4-2.684-2.767-3.85-4.101c1.966,1.399,6.25,3.741,12.85,7.025s20.8,11.842,42.6,25.675v0.3
		c-5.467-3.666-11.267-6.483-17.4-8.449C73.825,769.15,62.425,762.334,53.358,753.134z"/>
	<path display="inline" fill-rule="evenodd" clip-rule="evenodd" fill="#92E3FC" d="M43.208,545.084
		c4.937-2.099,9.07-4.373,12.4-6.825c0.304,1.384-2.996,4.059-9.9,8.024c-6.901,3.967-14.118,7.667-21.65,11.101
		c-7.6,3.399-12.483,9.683-14.65,18.85c-1.784,7.409-4.918,13.334-9.4,17.775v-6.226c3.563-3.881,6.03-8.514,7.4-13.899
		c1.934-7.601,6.733-13.601,14.4-18C29.441,551.517,36.575,547.917,43.208,545.084z"/>
	<path display="inline" fill-rule="evenodd" clip-rule="evenodd" fill="#92E3FC" d="M15.008,720.533
		c-4.133-2.767-8.183-9.8-12.15-21.1c-3.4-12.3-3.767-22.517-1.1-30.65C-1.142,681.417,3.275,698.667,15.008,720.533z"/>
	<path display="inline" fill-rule="evenodd" clip-rule="evenodd" fill="#92E3FC" d="M67.358,521.483
		c-3.367,1.867-6.983,4.217-10.85,7.05c-14.233,10.4-26.45,16.783-36.65,19.15c6.467-2.033,13.017-5.633,19.65-10.8
		C49.508,529.051,58.792,523.917,67.358,521.483z"/>
	<path display="inline" fill-rule="evenodd" clip-rule="evenodd" fill="#92E3FC" d="M124.958,484.283
		c10.733-3.566,19.966-4.699,27.7-3.399c-11.8-1.101-26.917,3.616-45.35,14.149C109.308,491.767,115.191,488.184,124.958,484.283z"
		/>
</g>
<path id="flowpath" fill-rule="evenodd" clip-rule="evenodd" fill="none" d="M391.111,984.563
	c-45.272-18.395-88.772-40.355-130.081-66.466c-17.963-11.354-36.367-23.123-51.044-38.676
	c-13.199-13.987-22.659-30.925-34.254-46.17c-13.204-17.359-31.177-37.627-50.981-47.695c-15.071-7.661-32.549-6.793-47.613-14.838
	c-27.367-14.615-46.411-45.227-60.279-71.825C3.62,673.499-12.494,638.516-4.115,609.11c6.541-22.957,28.802-36.943,45.936-51.621
	c27.643-23.68,49.917-52.179,80.851-71.95c26.352-16.842,45.643-40.576,71.953-57.613c19.09-12.361,39.654-22.311,60.302-31.765
	c63.169-28.921,129.253-51.415,194.681-74.565"/>
<image overflow="visible" enable-background="new    " width="44" height="22" id="ship" xlink:href="img/ship.png"  transform="matrix(0.9999 0 0 0.9999 -46.9961 186.502)">
</image>
<image overflow="visible" enable-background="new    " width="376" height="221" id="water_treatment" xlink:href="img/watertreatment.png"  transform="matrix(1 0 0 1 80 621.9453)">
</image>
<image overflow="visible" enable-background="new    " width="123" height="65" id="agriculture" xlink:href="img/agriculture.png"  transform="matrix(1 0 0 1 1116.9004 257.5059)">
</image>
<image overflow="visible" enable-background="new    " width="398" height="319" id="town" xlink:href="img/town.png"  transform="matrix(1 0 0 1 288.7812 214.502)">
</image>
<image overflow="visible" enable-background="new    " width="460" height="483" id="vegetation" xlink:href="img/vegetation.png"  transform="matrix(1 0 0 1 0 410)">
</image>
<g id="waterlines">
	<g opacity="0.2">
		<path d="M1070.073,240.2l-68.354,13.95v0.05c-7.396,1.9-13.47,2.57-18.19,2c-2.604-0.27-4.688-0.48-6.25-0.65l-4.9,4.85
			c4,0.37,7.28,0.68,9.851,0.95c5.53,0.5,12.28-0.28,20.25-2.35v-0.05l80.354-17.4L1070.073,240.2z M896.523,246.2
			c-5.771-0.5-12.81,0.28-21.104,2.35l0.604,4.8c8.93-2.57,15.22-3.58,18.85-3.05c3.631,0.5,5.9,1.07,6.801,1.7l5.149-4.85
			C902.653,246.78,899.224,246.47,896.523,246.2z M852.224,255.7c-66.5,17.03-94.62,36.15-84.35,57.35
			c2.03-21.33,32.5-39.58,91.4-54.75L852.224,255.7z M983.974,683.93c0.33,0.88,0.646,1.75,0.938,2.62h0.72L983.974,683.93z"/>
		<path d="M872.424,763.1c-31.5,0.23-56.301,0.354-74.396,0.354l0.19-9.854l74.354,0.061c82.521-4.438,116.58-26.91,102.181-67.45
			l-76.229-120.7h0.05l-68.354-108.7c0.068,0.07,0.139,0.132,0.199,0.2l-21.5-33.45c-4.17-5.271-11.33-9.273-21.5-12.05h0.051
			c-21.361-7.5-31.921-18.3-31.646-32.396V352.56c-3.9,3.771-9.03,7.104-15.4,10l-56.646,26.7c-9.73,5.13-18.28,7.82-25.65,8.05
			c-3.567-0.021-6.78-0.021-9.646,0c0.229-3.47,0.63-6.75,1.193-9.85c2.07-0.03,4.883-0.05,8.45-0.05
			c6.57,0.062,14.521-2.382,23.854-7.354l54.604-25.646c12.47-5.53,18.83-13.56,19.104-24.06v-6.85h8.396l-0.55-0.3h3.697
			l-0.447,0.3h0.396v8c0.637,9.93,6.977,17.57,19,22.9l75.307,35.396v-0.05c0.17,0.1,0.33,0.18,0.5,0.25l0.053,0.05l0.447,0.2v0.05
			c9,4.671,16.683,6.971,23.053,6.9h65.6v9.896H892.49c-2.13-0.021-4.448-0.021-6.948,0c-7.271-0.27-15.649-2.879-25.149-7.85
			l-78.05-36.7c-5.931-2.7-10.801-5.78-14.603-9.25v25.8c0.132,10.669,8.396,18.771,24.802,24.301c0.028,0,0.08,0.021,0.146,0.059
			c12.365,4.329,20.327,9.43,23.896,15.3v-0.05l89.604,142.05v-0.05l19.479,30.85l58.317,92.38c0.328,0.88,0.643,1.75,0.933,2.62
			C1000.323,732.09,962.823,757.61,872.424,763.1z"/>
	</g>
	<g>
		<path opacity="0.2" enable-background="new    " d="M983.974,683.93l-58.312-92.38h2.271l38.805,60.854h-0.055l5.649,8.939
			c2,3.139,3.83,6.23,5.5,9.311C980.323,675.25,982.373,679.68,983.974,683.93z"/>
	</g>
	<g>
		<g>
			<path fill="#B4F0FE" d="M972.873,656.4l-5.6-8.854h0.05l-57.854-91.3v0.05l-89.601-141.45v0.061
				c-3.569-5.871-11.529-10.95-23.899-15.25c-0.062-0.03-0.119-0.061-0.146-0.061c-16.4-5.521-24.67-13.6-24.8-24.19v-25.7
				c3.8,3.43,8.67,6.5,14.6,9.2l78.051,36.55c9.5,4.97,17.88,7.562,25.149,7.8c2.5-0.029,4.812-0.029,6.95,0h58.69v-9.85H888.82
				c-6.37,0.062-14.053-2.229-23.053-6.854v-0.05l-0.447-0.2l-0.053-0.05c-0.172-0.07-0.327-0.15-0.5-0.25v0.05l-75.307-35.25
				c-12.021-5.33-18.369-12.95-19-22.85V320h-0.396l0.197-0.15h-0.354v0.25h-5.5V320h-5.45v6.85c-0.27,10.438-6.63,18.42-19.1,23.95
				l-54.603,25.55c-9.33,4.938-17.278,7.37-23.854,7.31c-3.569,0-6.38,0.02-8.45,0.05c-0.562,3.1-0.97,6.37-1.197,9.8
				c2.867-0.028,6.078-0.028,9.647,0c7.368-0.229,15.92-2.896,25.647-8l56.646-26.6c6.37-2.9,11.5-6.229,15.398-9.95v26.45
				c-0.271,14.021,10.276,24.771,31.646,32.25h-0.053c10.171,2.77,17.328,6.77,21.5,12l37.303,59.8
				c-1.104-2.07-2.132-4.021-3.104-5.854l55.445,87.45h-0.051l28.646,45.15h-0.052l34.853,55h0.053
				c0.896,1.5,1.776,2.979,2.646,4.45c28.934,50.1-2.25,77.609-93.552,82.55l-73.198-0.05l-0.396,9.8
				c17.87,0,42.354-0.12,73.447-0.354c99.104-6.062,133.771-36.72,104-91.94C976.644,662.62,974.844,659.53,972.873,656.4z
				 M843.924,468.25c0.029,0.27,0.08,0.55,0.149,0.85C843.604,468.2,843.554,467.92,843.924,468.25z"/>
			<g>
				
					<image display="none" overflow="visible" enable-background="new    " width="267" height="475" id="freshwater_highlighted" xlink:href="img/freshwater_highlighted.png"  transform="matrix(1 0 0 1 739.5 301)">
				</image>
				<g>
					<path fill="#B4F0FE" d="M977.704,665.652c-1.605-3.032-3.405-6.122-5.376-9.252l-5.6-8.854h0.05l-57.854-91.3v0.05
						l-89.601-141.45v0.061c-3.569-5.871-11.529-10.95-23.899-15.25c-0.062-0.03-0.119-0.061-0.146-0.061
						c-16.4-5.521-24.67-13.6-24.8-24.19v-25.7l-0.375-19.949c-0.081-0.593-0.146-1.195-0.186-1.805V320h-0.396l0.196-0.15h-0.354
						v0.25h-5.5V320h-5.45l0.144,28.955v26.45c-0.271,14.021,10.277,24.771,31.646,32.25h-0.052c10.17,2.77,17.329,6.77,21.5,12
						l37.302,59.8c-1.104-2.07-2.132-4.021-3.104-5.854l55.446,87.45h-0.051l28.646,45.15h-0.052l34.854,55h0.052
						c0.896,1.5,1.778,2.979,2.646,4.45c28.935,50.1-2.25,77.609-93.552,82.55l-73.198-0.05l-0.396,9.8
						c17.87,0,42.354-0.12,73.448-0.354C972.807,751.533,1007.475,720.877,977.704,665.652z"/>
				</g>
			</g>
		</g>
		<path fill="#B4F0FE" d="M1079.523,240.75l-71.45,15.75v0.05c-7.729,2.07-14.28,2.85-19.649,2.35c-2.49-0.27-29.53-3.3-81.101-9.1
			c-3.95-0.52-6.77-0.91-8.399-1.15c-3.938-0.63-17.15,2.1-39.62,8.18l0.021,0.02c-56.8,14.23-86.2,31.47-88.2,51.7
			c-10.021-20.08,17.39-38.18,82.25-54.3l-0.55,0.05c25.229-6.77,40.021-10.02,44.351-9.75c3.239,0.17,6.42,0.51,9.55,1l2.649,0.3
			c51.03,5,77.801,7.63,80.301,7.9c4.604,0.57,10.479-0.08,17.649-1.95v-0.05l55.601-12.3L1079.523,240.75z"/>
	</g>
	<g opacity="0.2">
		<path d="M1018.973,551.8l12,0.604l25.451,37.396v-0.05l98.25,141.5c2.133,3.133,4.033,5.949,5.699,8.449
			c1.667,2.5,5.1,8.229,10.301,17.2c0.799,1.934,2,4.75,3.604,8.44c1.396,4.733,1.479,9.477,0.25,14.2
			c-6.867,40.8-62.783,66.716-167.75,77.75c-13.033,1.866-28.084,3-45.15,3.399c-1.3,0-2.6,0.018-3.896,0.051H565.825
			c-0.033,0.033-0.066,0.05-0.104,0.05h-8.25c-0.396-0.034-1.083-0.083-2.05-0.146c-1-0.064-2-0.104-3-0.104
			c-1.033,0-7.617-0.812-19.75-2.45c-11.783-1.604-22.549-5.938-32.3-13v0.354c-0.833-0.732-1.667-1.47-2.5-2.199
			c-26.333-23.437-55.05-55.187-86.15-95.25c-0.1-0.033-0.183-0.066-0.25-0.103l0.15-0.104c-0.067-0.062-0.867-1.2-2.4-3.396
			l10.45-6.897l4.8,2.1c8.534,8.867,30.438,13.81,65.7,14.81l156.5,0.3v9.396c-16.167,0-32.562,0.021-49.2,0.06
			c-24.433,0.062-49.933,0.134-76.5,0.19c-41,0.104-69.267-1.69-84.8-5.396c16.438,24.101,37,47.467,61.7,70.101
			c0.833,0.771,1.667,1.533,2.5,2.306v0.146c6.412,6.097,11.496,9.996,15.25,11.699c3.966,1.768,9.064,3.417,15.3,4.95
			c6.2,1.467,17.667,2.69,34.4,3.69h391.851c1.5-0.023,2.982-0.062,4.449-0.1c17.301-0.603,32.283-1.734,44.95-3.4v-0.05
			c101.936-12.332,154.469-37.999,157.601-77h-0.396c-2-9.562-6.482-19.8-13.449-30.7c-0.966-1.467-1.95-2.94-2.95-4.44h-0.05
			l-98.25-141.5h0.05L1018.973,551.8z M386.874,523.5l12.2-0.4l-30.5,39.9c-0.066,0.066-0.117,0.133-0.15,0.199
			c-8,10.562-5.933,18.634,6.2,24.2v-0.06l76.2,37.7V625c49.3,22.366,53.062,45.516,11.3,69.449h-0.05l-28.7,16.45l-0.05-2.56h-0.05
			l-0.06-8.396l-1.3-1.604l17.25-9.441c34.771-17.199,35.383-33.949,1.854-50.25l-0.06-2.559v2.5l-87.35-43.1
			c-0.034,0-0.067-0.021-0.1-0.053c-15.733-7.473-18.033-18.271-6.9-32.397h0.05L386.874,523.5z"/>
	</g>
	<g>
		<path fill="#E2D1C7" d="M411.713,742.37c-0.09-0.021-0.18-0.05-0.27-0.07l0.14-0.09C411.633,742.27,411.673,742.32,411.713,742.37
			z"/>
	</g>
	<g>
		<path fill="#E2D1C7" d="M412.062,741.9l-0.479,0.31c-0.05-0.07-0.11-0.14-0.16-0.21L412.062,741.9z"/>
		<path fill="#E2D1C7" d="M1174.523,774.02c-6.86,40.812-62.771,66.73-167.75,77.78c-13.03,1.87-28.08,3-45.15,3.4
			c-1.3,0-2.6,0.02-3.899,0.05H565.824c-0.04,0.021-0.08,0.03-0.13,0.05h-8.229c-0.396-0.03-1.09-0.08-2.08-0.146
			c-0.98-0.08-1.98-0.12-3-0.131c-1,0.011-7.577-0.812-19.73-2.449c-12.17-1.646-23.24-6.2-33.23-13.67l-0.05-4.65V839
			c-26.72-23.56-55.94-55.77-87.66-96.63c-0.04-0.05-0.08-0.104-0.13-0.16l0.479-0.31l12.409-7.9c5.9,6.14,18.2,10.39,36.9,12.75
			c8.33,1.06,17.93,1.74,28.8,2.05l156.5,0.3v9.45c-12.77,0-25.6,0.021-38.5,0.05h-24.9c-20.07,0.061-40.85,0.104-62.32,0.15
			c-24.354,0.06-44.212-0.56-59.57-1.85c-10.5-0.881-18.892-2.07-25.189-3.57c16.769,24.59,37.819,48.42,63.189,71.52v0.2
			c6.87,6.63,12.29,10.84,16.25,12.62c3.979,1.8,9.07,3.45,15.271,4.95c6.228,1.5,17.688,2.74,34.438,3.729h391.852
			c1.5-0.021,2.979-0.062,4.448-0.1c17.302-0.6,32.28-1.729,44.95-3.4v-0.05c102.486-12.41,155.04-38.3,157.646-77.646
			c-1.87-7.31-4.775-14.4-8.729-21.31c-0.021-0.051-0.052-0.101-0.069-0.146c-1.521-2.854-3.221-5.75-5.101-8.7
			c-0.972-1.47-1.95-2.95-2.95-4.45h-0.05l-98.25-141.5h0.05l-25.55-36.85h10.601l22.25,32.1v-0.05l98.25,141.5
			c2.136,3.13,4.029,5.95,5.699,8.45s5.104,8.229,10.301,17.2c0.808,1.941,2,4.76,3.604,8.441
			C1175.684,764.57,1175.773,769.29,1174.523,774.02z"/>
	</g>
	<g>
		<path fill="#E2D1C7" d="M462.124,688.85l-0.06-0.02l-28.69,16.47l-0.05-2.55h-0.05l-0.06-3c-1.329-1.561-3.26-3.26-5.8-5.1
			l21.36-11.15c0.13-0.07,0.26-0.13,0.39-0.2c34.76-17.188,35.37-33.938,1.854-50.25l-0.059-3.41V633l-87.35-43.1l-0.1-0.061
			c-15.74-7.47-18.05-18.26-6.9-32.396h0.01l28.24-36.854h11.897l-28.2,36.811l-0.15,0.189c-7.99,10.58-5.92,18.646,6.18,24.17
			l0.02-0.02l76.201,37.7v-0.056C500.133,641.77,503.894,664.92,462.124,688.85z"/>
	</g>
	<g>
		
			<image display="none" overflow="visible" enable-background="new    " width="273" height="62" id="wastewater_highlighted" xlink:href="img/wastewater_highlighted.png"  transform="matrix(1 0 0 1 392.5 716)">
		</image>
		<g>
			<g>
				<path fill="#E2D1C7" d="M646.648,749.545v9.45c-12.771,0-25.604,0.017-38.5,0.05c-8.233,0-16.533,0-24.9,0
					c-20.076,0.051-40.852,0.102-62.324,0.15c-24.354,0.057-44.214-0.562-59.575-1.854c-12.878-1.075-22.595-2.626-29.146-4.646
					l1.725,1.271c-7.982-5.667-15.482-9.409-22.5-11.225l13.025-8.3c5.898,6.138,18.202,10.388,36.896,12.75
					c8.33,1.061,17.934,1.74,28.804,2.05L646.648,749.545z"/>
			</g>
		</g>
	</g>
</g>
<g id="waterlines_clip" display="none">
	<g display="inline" opacity="0.2">
		<path d="M1070.073,240.2l-68.354,13.95v0.05c-7.396,1.9-13.47,2.57-18.19,2c-2.604-0.27-4.688-0.48-6.25-0.65l-4.9,4.85
			c4,0.37,7.28,0.68,9.851,0.95c5.53,0.5,12.28-0.28,20.25-2.35v-0.05l80.354-17.4L1070.073,240.2z M896.523,246.2
			c-5.771-0.5-12.81,0.28-21.104,2.35l0.604,4.8c8.93-2.57,15.22-3.58,18.85-3.05c3.631,0.5,5.9,1.07,6.801,1.7l5.149-4.85
			C902.653,246.78,899.224,246.47,896.523,246.2z M852.224,255.7c-66.5,17.03-94.62,36.15-84.35,57.35
			c2.03-21.33,32.5-39.58,91.4-54.75L852.224,255.7z M983.974,683.93c0.33,0.88,0.646,1.75,0.938,2.62h0.72L983.974,683.93z"/>
		<path d="M872.424,763.1c-31.5,0.23-56.301,0.354-74.396,0.354l0.19-9.854l74.354,0.061c82.521-4.438,116.58-26.91,102.181-67.45
			l-76.229-120.7h0.05l-68.354-108.7c0.068,0.07,0.139,0.132,0.199,0.2l-21.5-33.45c-4.17-5.271-11.33-9.273-21.5-12.05h0.051
			c-21.361-7.5-31.921-18.3-31.646-32.396V352.56c-3.9,3.771-9.03,7.104-15.4,10l-56.646,26.7c-9.73,5.13-18.28,7.82-25.65,8.05
			c-3.567-0.021-6.78-0.021-9.646,0c0.229-3.47,0.63-6.75,1.193-9.85c2.07-0.03,4.883-0.05,8.45-0.05
			c6.57,0.062,14.521-2.382,23.854-7.354l54.604-25.646c12.47-5.53,18.83-13.56,19.104-24.06v-6.85h8.396l-0.55-0.3h3.697
			l-0.447,0.3h0.396v8c0.637,9.93,6.977,17.57,19,22.9l75.307,35.396v-0.05c0.17,0.1,0.33,0.18,0.5,0.25l0.053,0.05l0.447,0.2v0.05
			c9,4.671,16.683,6.971,23.053,6.9h65.6v9.896H892.49c-2.13-0.021-4.448-0.021-6.948,0c-7.271-0.27-15.649-2.879-25.149-7.85
			l-78.05-36.7c-5.931-2.7-10.801-5.78-14.603-9.25v25.8c0.132,10.669,8.396,18.771,24.802,24.301c0.028,0,0.08,0.021,0.146,0.059
			c12.365,4.329,20.327,9.43,23.896,15.3v-0.05l89.604,142.05v-0.05l19.479,30.85l58.317,92.38c0.328,0.88,0.643,1.75,0.933,2.62
			C1000.323,732.09,962.823,757.61,872.424,763.1z"/>
	</g>
	<g display="inline">
		<path opacity="0.2" enable-background="new    " d="M983.974,683.93l-58.312-92.38h2.271l38.805,60.854h-0.055l5.649,8.939
			c2,3.139,3.83,6.23,5.5,9.311C980.323,675.25,982.373,679.68,983.974,683.93z"/>
	</g>
	<g display="inline">
		<path fill="#1CCBD3" d="M972.873,656.4l-5.6-8.854h0.05l-57.854-91.3v0.05l-89.601-141.45v0.061
			c-3.569-5.871-11.529-10.95-23.899-15.25c-0.062-0.03-0.119-0.061-0.146-0.061c-16.4-5.521-24.67-13.6-24.8-24.19v-25.7
			c3.8,3.43,8.67,6.5,14.6,9.2l78.051,36.55c9.5,4.97,17.88,7.562,25.149,7.8c2.5-0.029,4.812-0.029,6.95,0h58.69v-9.85H888.82
			c-6.37,0.062-14.053-2.229-23.053-6.854v-0.05l-0.447-0.2l-0.053-0.05c-0.172-0.07-0.327-0.15-0.5-0.25v0.05l-75.307-35.25
			c-12.021-5.33-18.369-12.95-19-22.85V320h-0.396l0.197-0.15h-0.354v0.25h-5.5V320h-5.45v6.85c-0.27,10.438-6.63,18.42-19.1,23.95
			l-54.603,25.55c-9.33,4.938-17.278,7.37-23.854,7.31c-3.569,0-6.38,0.02-8.45,0.05c-0.562,3.1-0.97,6.37-1.197,9.8
			c2.867-0.028,6.078-0.028,9.647,0c7.368-0.229,15.92-2.896,25.647-8l56.646-26.6c6.37-2.9,11.5-6.229,15.398-9.95v26.45
			c-0.271,14.021,10.276,24.771,31.646,32.25h-0.053c10.171,2.77,17.328,6.77,21.5,12l37.303,59.8
			c-1.104-2.07-2.132-4.021-3.104-5.854l55.445,87.45h-0.051l28.646,45.15h-0.052l34.853,55h0.053c0.896,1.5,1.776,2.979,2.646,4.45
			c28.934,50.1-2.25,77.609-93.552,82.55l-73.198-0.05l-0.396,9.8c17.87,0,42.354-0.12,73.447-0.354
			c99.104-6.062,133.771-36.72,104-91.94C976.644,662.62,974.844,659.53,972.873,656.4z M843.924,468.25
			c0.029,0.27,0.08,0.55,0.149,0.85C843.604,468.2,843.554,467.92,843.924,468.25z"/>
		<path fill="#1CCBD3" d="M1079.523,240.75l-71.45,15.75v0.05c-7.729,2.07-14.28,2.85-19.649,2.35c-2.49-0.27-29.53-3.3-81.101-9.1
			c-3.95-0.52-6.77-0.91-8.399-1.15c-3.938-0.63-17.15,2.1-39.62,8.18l0.021,0.02c-56.8,14.23-86.2,31.47-88.2,51.7
			c-10.021-20.08,17.39-38.18,82.25-54.3l-0.55,0.05c25.229-6.77,40.021-10.02,44.351-9.75c3.239,0.17,6.42,0.51,9.55,1l2.649,0.3
			c51.03,5,77.801,7.63,80.301,7.9c4.604,0.57,10.479-0.08,17.649-1.95v-0.05l55.601-12.3L1079.523,240.75z"/>
	</g>
	<g display="inline" opacity="0.2">
		<path d="M1018.973,551.8l12,0.604l25.451,37.396v-0.05l98.25,141.5c2.133,3.133,4.033,5.949,5.699,8.449
			c1.667,2.5,5.1,8.229,10.301,17.2c0.799,1.934,2,4.75,3.604,8.44c1.396,4.733,1.479,9.477,0.25,14.2
			c-6.867,40.8-62.783,66.716-167.75,77.75c-13.033,1.866-28.084,3-45.15,3.399c-1.3,0-2.6,0.018-3.896,0.051H565.825
			c-0.033,0.033-0.066,0.05-0.104,0.05h-8.25c-0.396-0.034-1.083-0.083-2.05-0.146c-1-0.064-2-0.104-3-0.104
			c-1.033,0-7.617-0.812-19.75-2.45c-11.783-1.604-22.549-5.938-32.3-13v0.354c-0.833-0.732-1.667-1.47-2.5-2.199
			c-26.333-23.437-55.05-55.187-86.15-95.25c-0.1-0.033-0.183-0.066-0.25-0.103l0.15-0.104c-0.067-0.062-0.867-1.2-2.4-3.396
			l10.45-6.897l4.8,2.1c8.534,8.867,30.438,13.81,65.7,14.81l156.5,0.3v9.396c-16.167,0-32.562,0.021-49.2,0.06
			c-24.433,0.062-49.933,0.134-76.5,0.19c-41,0.104-69.267-1.69-84.8-5.396c16.438,24.101,37,47.467,61.7,70.101
			c0.833,0.771,1.667,1.533,2.5,2.306v0.146c6.412,6.097,11.496,9.996,15.25,11.699c3.966,1.768,9.064,3.417,15.3,4.95
			c6.2,1.467,17.667,2.69,34.4,3.69h391.851c1.5-0.023,2.982-0.062,4.449-0.1c17.301-0.603,32.283-1.734,44.95-3.4v-0.05
			c101.936-12.332,154.469-37.999,157.601-77h-0.396c-2-9.562-6.482-19.8-13.449-30.7c-0.966-1.467-1.95-2.94-2.95-4.44h-0.05
			l-98.25-141.5h0.05L1018.973,551.8z M386.874,523.5l12.2-0.4l-30.5,39.9c-0.066,0.066-0.117,0.133-0.15,0.199
			c-8,10.562-5.933,18.634,6.2,24.2v-0.06l76.2,37.7V625c49.3,22.366,53.062,45.516,11.3,69.449h-0.05l-28.7,16.45l-0.05-2.56h-0.05
			l-0.06-8.396l-1.3-1.604l17.25-9.441c34.771-17.199,35.383-33.949,1.854-50.25l-0.06-2.559v2.5l-87.35-43.1
			c-0.034,0-0.067-0.021-0.1-0.053c-15.733-7.473-18.033-18.271-6.9-32.397h0.05L386.874,523.5z"/>
	</g>
	<g display="inline">
		<path fill="#E2D1C7" d="M411.713,742.37c-0.09-0.021-0.18-0.05-0.27-0.07l0.14-0.09C411.633,742.27,411.673,742.32,411.713,742.37
			z"/>
	</g>
	<g display="inline">
		<g>
			<path fill="#E28A64" d="M412.062,741.9l-0.479,0.31c-0.05-0.07-0.11-0.14-0.16-0.21L412.062,741.9z"/>
			<path fill="#E28A64" d="M1174.523,774.02c-6.86,40.812-62.771,66.73-167.75,77.78c-13.03,1.87-28.08,3-45.15,3.4
				c-1.3,0-2.6,0.02-3.899,0.05H565.824c-0.04,0.021-0.08,0.03-0.13,0.05h-8.229c-0.396-0.03-1.09-0.08-2.08-0.146
				c-0.98-0.08-1.98-0.12-3-0.131c-1,0.011-7.577-0.812-19.73-2.449c-12.17-1.646-23.24-6.2-33.23-13.67l-0.05-4.65V839
				c-26.72-23.56-55.94-55.77-87.66-96.63c-0.04-0.05-0.08-0.104-0.13-0.16l0.479-0.31l12.409-7.9c5.9,6.14,18.2,10.39,36.9,12.75
				c8.33,1.06,17.93,1.74,28.8,2.05l156.5,0.3v9.45c-12.77,0-25.6,0.021-38.5,0.05h-24.9c-20.07,0.061-40.85,0.104-62.32,0.15
				c-24.354,0.06-44.212-0.56-59.57-1.85c-10.5-0.881-18.892-2.07-25.189-3.57c16.769,24.59,37.819,48.42,63.189,71.52v0.2
				c6.87,6.63,12.29,10.84,16.25,12.62c3.979,1.8,9.07,3.45,15.271,4.95c6.228,1.5,17.688,2.74,34.438,3.729h391.852
				c1.5-0.021,2.979-0.062,4.448-0.1c17.302-0.6,32.28-1.729,44.95-3.4v-0.05c102.486-12.41,155.04-38.3,157.646-77.646
				c-1.87-7.31-4.775-14.4-8.729-21.31c-0.021-0.051-0.052-0.101-0.069-0.146c-1.521-2.854-3.221-5.75-5.101-8.7
				c-0.972-1.47-1.95-2.95-2.95-4.45h-0.05l-98.25-141.5h0.05l-25.55-36.85h10.601l22.25,32.1v-0.05l98.25,141.5
				c2.136,3.13,4.029,5.95,5.699,8.45s5.104,8.229,10.301,17.2c0.808,1.941,2,4.76,3.604,8.441
				C1175.684,764.57,1175.773,769.29,1174.523,774.02z"/>
		</g>
		<g>
			<path fill="#E28A64" d="M462.124,688.85l-0.06-0.02l-28.69,16.47l-0.05-2.55h-0.05l-0.06-3c-1.329-1.561-3.26-3.26-5.8-5.1
				l21.36-11.15c0.13-0.07,0.26-0.13,0.39-0.2c34.76-17.188,35.37-33.938,1.854-50.25l-0.059-3.41V633l-87.35-43.1l-0.1-0.061
				c-15.74-7.47-18.05-18.26-6.9-32.396h0.01l28.24-36.854h11.897l-28.2,36.811l-0.15,0.189c-7.99,10.58-5.92,18.646,6.18,24.17
				l0.02-0.02l76.201,37.7v-0.056C500.133,641.77,503.894,664.92,462.124,688.85z"/>
		</g>
	</g>
</g>
<g id="dropletpaths">
	<path fill="none" d="M1087.5,231c-62.031,31.808-150.163,20.399-215.592,21.004c-30.583,0.283-68.828,8.238-88.581,33.96
		c-9.396,12.234-24.736,13.063-37.828,22.586c-21.508,15.646-50.178-16.044-56-30.211"/>
	<path fill="none" d="M717.791,308.55c47.642-12.377,39.261,15.981,19.03,28.956c-12.431,6.918-26.276,29.86-39.375,35.447
		C667.845,385.576,656.271,387.784,624.5,387"/>
	<path fill="none" d="M707.459,267.669C776.5,244.5,749.5,312.787,825.923,371.18c25.043,11.487,43.619,26.354,72.172,27.793
		c19.415,0.984,69-0.271,88.405-0.973"/>
	<path fill="none" d="M695.322,277c85.513-19.494,69.422,62.339,70.4,73.385c1.062,11.919-1.147,32.895,7.146,42.599
		c8.447,9.883,28.847,10.604,39.87,18.989c9.965,7.588,13.542,21.283,20.646,31.289c9.561,13.456,18.792,27.154,27.813,40.979
		c18.234,27.939,35.54,56.484,52.762,85.064c17.92,29.744,34.709,60.709,54.438,89.307c14.146,20.5,32.026,46.563,2.883,65.393
		c-17.128,11.07-34.734,22.475-55.318,24.969c-21.664,2.625-79.609,2.622-87.312,3.635c-11.362,1.482-58.81,1.021-70.236,0.46"/>
	<path fill="none" d="M412.5,494c-7.146,11.299-34.504,42.429-42.037,53.472c-3.981,5.836-12.48,14.877-12.132,22.562
		c0.753,16.614,38.087,25.542,49.968,31.062c21.312,9.906,42.842,21.107,62.336,34.312c16.312,11.042,19.174,21.555,2.521,34.478
		c-19.013,14.74-52.836,33.228-73.65,45.112"/>
	<path fill="none" d="M681.5,754c-49.649-0.564-119.368,1.492-169.018,2.059c-21.733,0.248-42.015-0.645-62.688-7.98
		c-18.162-6.452-43.829-21.184-60.299-31.07"/>
	<path fill="none" d="M1000.503,514.998c24.503,36.554,75.142,97.993,98.565,135.181c9.897,15.738,19.845,31.417,30.024,46.979
		c10.044,15.349,23.259,29.414,32.445,45.161c21.039,36.063-12.049,67.133-42.187,79.902c-15.92,6.75-31.565,13.127-48.521,16.938
		c-36.825,8.259-78.417,9.874-116.146,9.875c-49.438,0.001-98.666,3.022-148.118,2.979c-26.459-0.021-52.039-4.042-78.188-4.021
		c-36.037,0.026-72.065,0.386-108.099,0.67c-39.244,0.309-94.48,15.181-126.188-16.405c-19.105-19.038-35.896-40.268-52.146-61.753
		c-12.985-17.17-31.162-37.396-48.447-50.506"/>
</g>
<image overflow="visible" enable-background="new    " width="130" height="162" id="water_tower" xlink:href="img/water_tower.png"  transform="matrix(1 0 0 1 728.3223 163.5)">
</image>
<image overflow="visible" enable-background="new    " width="67" height="84" id="windmill_base" xlink:href="img/wind_turbine_base.png"  transform="matrix(1 0 0 1 8.25 251.0059)">
</image>
<image overflow="visible" enable-background="new    " width="43" height="39" id="blades" xlink:href="img/wind_turbine_blades.png"  transform="matrix(0.9999 0 0 0.9999 22.2524 260.834)">
</image>
<image overflow="visible" enable-background="new    " width="408" height="177" id="park" xlink:href="img/park.png"  transform="matrix(1 0 0 1 491.3223 431.002)">
</image>
<image overflow="visible" enable-background="new    " width="435" height="231" id="houses" xlink:href="img/houses.png"  transform="matrix(1 0 0 1 519.3203 583.5)">
</image>
<image overflow="visible" enable-background="new    " width="321" height="272" id="college" xlink:href="img/college.png"  transform="matrix(1 0 0 1 876.3203 291.002)">
</image>
<image overflow="visible" enable-background="new    " width="152" height="50" id="reservoir" xlink:href="img/reservoir.png"  transform="matrix(1 0 0 1 844.3223 226.5078)">
</image>
<image overflow="visible" enable-background="new    " width="1584" height="893" id="powerlines" xlink:href="img/powerlines.png"  transform="matrix(0.9999 0 0 0.9999 0 0)">
</image>
<g id="smoke">
	
		<image overflow="visible" enable-background="new    " width="25" height="21" xlink:href="img/smoke.png"  transform="matrix(0.9999 0 0 0.9999 107.0005 228.502)">
	</image>
	
		<image overflow="visible" enable-background="new    " width="25" height="21" xlink:href="img/smoke.png"  transform="matrix(0.9999 0 0 0.9999 140.0005 228.502)">
	</image>
	
		<image overflow="visible" enable-background="new    " width="25" height="21" xlink:href="img/smoke.png"  transform="matrix(0.9999 0 0 0.9999 175.2505 228.502)">
	</image>
</g>
<image overflow="visible" enable-background="new    " width="228" height="90" id="industry" xlink:href="img/power_plant.png"  transform="matrix(1 0 0 1 79.3945 292.5059)">
</image>
<g id="pipes">
	
		<image overflow="visible" enable-background="new    " width="164" height="156" xlink:href="img/smokestack/smokestack1.png"  transform="matrix(1 0 0 1 107 161)">
	</image>
	
		<image overflow="visible" enable-background="new    " width="164" height="156" xlink:href="img/smokestack/smokestack1.png"  transform="matrix(1 0 0 1 140 161)">
	</image>
	
		<image overflow="visible" enable-background="new    " width="164" height="156" xlink:href="img/smokestack/smokestack1.png"  transform="matrix(1 0 0 1 174 161)">
	</image>
</g>
<image overflow="visible" enable-background="new    " width="144" height="68" id="city" xlink:href="img/city.png"  transform="matrix(1 0 0 1 1068.9277 145.502)">
</image>
<g id="sparkpaths">
	<path fill="none" d="M602.58,218.589c-3.413,17.745-23.08,43.078-35.5,55.5"/>
	<path fill="none" d="M824.58,310.589c14.333-16.166,33-36.834,40-64.5"/>
	<path fill="none" d="M802.58,299.089c5.107,12.564,38.711,44.179,76.5,62.5c33.646,16.312,66.505,16.653,81,13"/>
	<path fill="none" d="M1018.08,668.09c-38.579,23.264-134.246,59.245-196.5,27.912"/>
	<path fill="none" d="M288.545,892.979c52.598-48.266,105.798-140.228,112.07-173.854"/>
</g>
<image overflow="visible" enable-background="new    " width="1584" height="77" id="top_menu" xlink:href="img/menu_top.png"  transform="matrix(0.9999 0 0 0.9999 0.0205 0)">
</image>
<image overflow="visible" enable-background="new    " width="326" height="835" id="sidebar" xlink:href="img/infopane_bg.png"  transform="matrix(0.9999 0 0 0.9999 1258.0391 58.6152)">
</image>
<g id="buttons">
	
		<image overflow="visible" enable-background="new    " width="181" height="66" id="electricity" xlink:href="img/electricity_button.png"  transform="matrix(1 0 0 1 357.5889 2.4961)">
	</image>
	
		<image overflow="visible" enable-background="new    " width="176" height="72" id="stream" xlink:href="img/stream_button.png"  transform="matrix(1 0 0 1 813.3047 0)">
	</image>
	
		<image overflow="visible" enable-background="new    " width="195" height="71" id="water" xlink:href="img/water_button.png"  transform="matrix(1 0 0 1 577.1963 1)">
	</image>
	
		<image overflow="visible" enable-background="new    " width="197" height="59" id="weather" xlink:href="img/weather_button.png"  transform="matrix(1 0 0 1 1029.4102 4.4961)">
	</image>
</g>
</svg>
