<?xml version="1.0" encoding="utf-8"?>
<!-- Generator: Adobe Illustrator 15.0.0, SVG Export Plug-In . SVG Version: 6.00 Build 0)  -->
<!DOCTYPE svg PUBLIC "-//W3C//DTD SVG 1.1//EN" "http://www.w3.org/Graphics/SVG/1.1/DTD/svg11.dtd">
<svg version="1.1" id="drawing" xmlns="http://www.w3.org/2000/svg" xmlns:xlink="http://www.w3.org/1999/xlink" x="0px" y="0px"
	 width="1584px" height="893px" viewBox="0 0 1584 893" enable-background="new 0 0 1584 893" xml:space="preserve">
<image overflow="visible" enable-background="new    " width="1255" height="834" xlink:href="img/background.png"  transform="matrix(0.9999 0 0 0.9999 0 59.1035)">
</image>
<image overflow="visible" enable-background="new    " width="44" height="22" id="ship" xlink:href="img/ship.png"  transform="matrix(0.9999 0 0 0.9999 -46.9961 186.502)">
</image>
<image overflow="visible" enable-background="new    " width="376" height="221" xlink:href="img/watertreatment.png"  transform="matrix(1 0 0 1 80 621.9453)">
</image>
<image overflow="visible" enable-background="new    " width="123" height="65" xlink:href="img/agriculture.png"  transform="matrix(1 0 0 1 1116.9004 257.5059)">
</image>
<image overflow="visible" enable-background="new    " width="398" height="319" xlink:href="img/town.png"  transform="matrix(1 0 0 1 288.7812 214.502)">
</image>
<image overflow="visible" enable-background="new    " width="460" height="483" xlink:href="img/vegetation.png"  transform="matrix(1 0 0 1 0 410)">
</image>
<image overflow="visible" enable-background="new    " width="1584" height="893" xlink:href="img/water_lines.png" >
</image>
<image overflow="visible" enable-background="new    " width="130" height="162" xlink:href="img/water_tower.png"  transform="matrix(1 0 0 1 728.3223 159.5)">
</image>
<g>
	
		<image overflow="visible" enable-background="new    " width="67" height="84" xlink:href="img/wind_turbine_base.png"  transform="matrix(1 0 0 1 8.25 251.0059)">
	</image>
</g>
<image overflow="visible" enable-background="new    " width="43" height="39" id="blades" xlink:href="img/wind_turbine_blades.png"  transform="matrix(0.9999 0 0 0.9999 22.2524 260.834)">
</image>
<image overflow="visible" enable-background="new    " width="408" height="177" xlink:href="img/park.png"  transform="matrix(1 0 0 1 491.3223 431.002)">
</image>
<image overflow="visible" enable-background="new    " width="435" height="231" xlink:href="img/houses.png"  transform="matrix(1 0 0 1 519.3203 583.5)">
</image>
<image overflow="visible" enable-background="new    " width="321" height="272" xlink:href="img/college.png"  transform="matrix(1 0 0 1 876.3203 291.002)">
</image>
<image overflow="visible" enable-background="new    " width="152" height="50" xlink:href="img/reservoir.png"  transform="matrix(1 0 0 1 844.3223 226.5078)">
</image>
<image overflow="visible" enable-background="new    " width="1584" height="893" id="powerlines" xlink:href="img/powerlines.png"  transform="matrix(0.9999 0 0 0.9999 0 0)">
</image>
<g id="smoke">
	
		<image overflow="visible" enable-background="new    " width="25" height="21" xlink:href="img/smoke.png"  transform="matrix(0.9999 0 0 0.9999 107.0005 228.502)">
	</image>
	
		<image overflow="visible" enable-background="new    " width="25" height="21" xlink:href="img/smoke.png"  transform="matrix(0.9999 0 0 0.9999 140.0005 228.502)">
	</image>
	
		<image overflow="visible" enable-background="new    " width="25" height="21" xlink:href="img/smoke.png"  transform="matrix(0.9999 0 0 0.9999 175.2505 228.502)">
	</image>
</g>
<image overflow="visible" enable-background="new    " width="228" height="90" xlink:href="img/power_plant.png"  transform="matrix(1 0 0 1 79.3945 292.5059)">
</image>
<g id="pipes">
	
		<image overflow="visible" enable-background="new    " width="164" height="156" xlink:href="img/smokestack/smokestack1.png"  transform="matrix(1 0 0 1 107 161)">
	</image>
	
		<image overflow="visible" enable-background="new    " width="164" height="156" xlink:href="img/smokestack/smokestack1.png"  transform="matrix(1 0 0 1 140 161)">
	</image>
	
		<image overflow="visible" enable-background="new    " width="164" height="156" xlink:href="img/smokestack/smokestack1.png"  transform="matrix(1 0 0 1 174 161)">
	</image>
</g>
<image overflow="visible" enable-background="new    " width="144" height="68" xlink:href="img/city.png"  transform="matrix(1 0 0 1 1068.9277 145.502)">
</image>
<g id="sparkpaths">
	<path fill="none" d="M602.58,218.589c-3.413,17.745-23.08,43.078-35.5,55.5"/>
	<path fill="none" d="M824.58,310.589c14.333-16.166,33-36.834,40-64.5"/>
	<path fill="none" d="M802.58,299.089c5.107,12.564,38.711,44.179,76.5,62.5c33.646,16.312,66.505,16.653,81,13"/>
	<path fill="none" d="M1018.08,668.09c-38.579,23.264-134.246,59.245-196.5,27.912"/>
	<path fill="none" d="M288.545,892.979c52.598-48.266,105.798-140.228,112.07-173.865"/>
</g>
<image overflow="visible" width="1584" height="77" xlink:href="img/menu_top.png"  transform="matrix(0.9999 0 0 0.9999 0.0195 0)">
</image>
<image overflow="visible" width="326" height="835" xlink:href="img/infopane_bg.png"  transform="matrix(0.9999 0 0 0.9999 1258.04 58.6143)">
</image>
<g>
	
		<image overflow="visible" width="181" height="66" xlink:href="img/electricity_button.png"  transform="matrix(1 0 0 1 357.5889 2.4951)">
	</image>
	<image overflow="visible" width="176" height="72" xlink:href="img/stream_button.png"  transform="matrix(1 0 0 1 813.3037 0)">
	</image>
	
		<image overflow="visible" width="195" height="71" xlink:href="img/water_button.png"  transform="matrix(1 0 0 1 577.1963 2.4951)">
	</image>
	
		<image overflow="visible" width="197" height="59" xlink:href="img/weather_button.png"  transform="matrix(1 0 0 1 1029.4111 4.4951)">
	</image>
</g>
</svg>
