<?xml version="1.0" encoding="utf-8"?>
<!-- Generator: Adobe Illustrator 15.0.0, SVG Export Plug-In . SVG Version: 6.00 Build 0)  -->
<!DOCTYPE svg PUBLIC "-//W3C//DTD SVG 1.1//EN" "http://www.w3.org/Graphics/SVG/1.1/DTD/svg11.dtd">
<svg version="1.1" id="Selected_Items" xmlns="http://www.w3.org/2000/svg" xmlns:xlink="http://www.w3.org/1999/xlink" x="0px"
	 y="0px" width="1584px" height="893px" viewBox="0 0 1584 893" enable-background="new 0 0 1584 893" xml:space="preserve">
<g id="plum_x5F_creek">
	<path id="stream_flow" fill="#00AAED" d="M678.05,204.6l-1.899,0.3c-11.134,2.9-20.367,5.5-27.7,7.8
		c-7.367,2.333-13.483,4.117-18.351,5.35c-4.866,1.2-10.1,2.633-15.699,4.3c-5.634,1.667-10.634,3.066-15,4.2
		c-4.4,1.133-8.601,2.317-12.601,3.55c-4.133,1.367-7.267,2.45-9.399,3.25c-3.667,1.367-6.9,2.816-9.7,4.35
		c-3.067,1.566-5.917,3.4-8.55,5.5c-3.4,2.7-6.917,6.833-10.551,12.4c-4.6,7-7.767,11.483-9.5,13.45
		c-4.633,5.167-10.467,9.767-17.5,13.8c-4.533,2.533-10.699,5.35-18.5,8.45c-9.399,3.633-16.434,6.4-21.1,8.3
		c-8.1,3.233-14.517,5.283-19.25,6.15c-4.767,0.867-9.25,2.1-13.45,3.7c-4.2,1.6-9.283,3.232-15.25,4.899
		c-6.033,1.634-11.933,4.384-17.7,8.25c-5.767,3.833-9.116,6.117-10.05,6.851c-0.933,0.732-22.1,15.167-63.5,43.3
		c-13.5,6.933-26.033,13.683-37.6,20.25c-26.367,14.9-44.75,22.933-55.15,24.1c-10.4,1.101-22.167,4.518-35.3,10.25
		c-3.733,1.434-7.033,2.634-9.9,3.601c-2.867,0.933-7.567,2.833-14.1,5.7c-6.567,2.866-6.767,7.05-0.6,12.55
		c6.133,5.466,9.083,11.116,8.85,16.95c-0.267,5.833-3.933,9.766-11,11.8c-7.1,2.033-13.35,4.216-18.75,6.55s-15.917,5.9-31.55,10.7
		c-15.7,4.8-23.117,9.583-22.25,14.35c0.833,4.733,5.8,11.366,14.9,19.9c9.1,8.5,2.75,18.033-19.05,28.6
		c-21.8,10.534-34.483,20.784-38.05,30.75c-3.567,9.935-0.667,17.784,8.7,23.55c8.333,5.102,11.133,16.584,8.4,34.45
		c-9.934,20.134-4.967,45.05,14.9,74.75c2,4.667,6.05,10.15,12.15,16.45c9,9.3,20.35,16.217,34.05,20.75
		c13.667,4.5,25.633,13.283,35.9,26.35c10.233,13.033,29.35,21.917,57.35,26.65c27.966,4.733,46.85,18.967,56.65,42.7
		c9.8,23.7,47.316,36.384,112.55,38.05H251.3l-0.1-0.05l0.05,0.05H91.6C68.867,880.967,58,867.7,59,852.7
		c0.667-16.4-12.667-31.366-40-44.9c-10-6.134-16-15.384-18-27.75V533.2c1.9-3.833,4.517-6.733,7.85-8.7
		c4.3-2.6,11.233-4.533,20.8-5.8c9.567-1.268,18.783-3.95,27.65-8.05c8.833-4.135,12.95-10.617,12.35-19.45
		c-0.633-8.866,6.067-15.083,20.1-18.65c14.033-3.565,26.483-6.35,37.35-8.35c10.8-2.034,18.95-5.25,24.45-9.65
		c-3.667-4.033-5.767-6.6-6.3-7.7c-1.933-3.732-1.483-7.3,1.35-10.699c6.967-8.167,17-14.601,30.1-19.301
		c1.667-0.633,4.133-1.467,7.4-2.5c1.9-0.6,6.4-1.866,13.5-3.8c5.533-1.533,10.05-2.899,13.55-4.1c6.467-2.2,12.133-4.284,17-6.25
		c4.867-1.967,13.184-3.917,24.95-5.851c11.733-1.967,30.667-9.5,56.8-22.6c25.3-12.7,41.25-22.35,47.85-28.95
		c11.933-7.533,18.983-12.383,21.15-14.55c2.167-2.2,6.083-5.233,11.75-9.1c3.2-2.167,7.967-4.833,14.3-8
		c10.667-5.5,23.7-10.633,39.1-15.4c8.601-2.767,21.518-6.75,38.75-11.95l10.5-3.65c6.935-2.566,12.784-4.767,17.55-6.6
		c7.167-2.8,12.066-4.983,14.7-6.55c6.768-4,9.617-8.033,8.55-12.1c-0.833-3.066-0.667-5.95,0.5-8.65c1.2-2.7,3.45-5.333,6.75-7.9
		c3.101-2.434,6.634-4.633,10.601-6.6c2.966-1.467,6.533-2.967,10.7-4.5c7.633-2.8,16.066-5.317,25.3-7.55
		c6.033-1.5,14.283-3.25,24.75-5.25c3.366-0.633,8.149-1.6,14.35-2.9c6.567-1.4,11.333-2.383,14.3-2.95c8.133-1.533,15.467-3,22-4.4
		c3.9-0.833,7.217-1.567,9.95-2.2l4.25,2.25L678.05,204.6z M175.35,780.75c0,0.1,0.017,0.2,0.05,0.3l0.6,0.9
		C175.767,781.55,175.55,781.15,175.35,780.75z"/>
	<path id="riparian_zone_2_" fill="#51CEF4" d="M548.6,255.6c-0.833,1.266-1.624,2.45-2.375,3.55c0.333-0.522,0.675-1.056,1.025-1.6
		c1.05-1.648,2.092-3.173,3.125-4.575C549.788,253.812,549.196,254.687,548.6,255.6z M134.275,538.425
		c-0.667-1.165-1.609-2.306-2.825-3.425c-9.167-8.434-14.184-15-15.05-19.7c-0.152-0.776-0.085-1.561,0.2-2.35
		c2.075,4.35,6.658,9.85,13.75,16.5C133.424,532.321,134.732,535.312,134.275,538.425z M127.1,464.2
		c9.144-1.722,16.386-4.288,21.725-7.7c0.886,1.003,1.944,2.17,3.175,3.5c-5.467,4.434-13.583,7.717-24.35,9.85
		c-10.867,2.102-23.3,4.984-37.3,8.65c-14,3.7-20.65,9.983-19.95,18.85c0.7,8.834-3.35,15.334-12.15,19.5
		c-8.833,4.167-18.033,6.935-27.6,8.302c-9.533,1.333-16.45,3.333-20.75,6c-2.62,1.561-5.586,5.311-8.9,11.25v-9.2
		c1.9-3.833,4.517-6.733,7.85-8.7c4.3-2.6,11.233-4.533,20.8-5.8c9.567-1.268,18.783-3.95,27.65-8.05
		c8.833-4.135,12.95-10.617,12.35-19.45c-0.633-8.866,6.067-15.083,20.1-18.65S116.233,466.2,127.1,464.2z M190.15,449.2
		c6.133,5.466,9.083,11.116,8.85,16.95c-0.004,0.098-0.013,0.196-0.025,0.3c-1.126-4.169-3.935-8.218-8.425-12.15
		c-4.103-3.617-5.419-6.676-3.95-9.175C187.345,446.395,188.528,447.754,190.15,449.2z M175.35,780.75c0,0.1,0.017,0.2,0.05,0.3
		l0.6,0.9C175.767,781.55,175.55,781.15,175.35,780.75z M110.35,744.95c-6.167-6.268-10.267-11.717-12.3-16.352
		c-8.455-12.413-12.263-28.413-11.425-48c2.487,12.455,8.695,26.105,18.625,40.95c2,4.667,6.05,10.15,12.15,16.45
		c9,9.3,20.35,16.217,34.05,20.75c13.667,4.5,25.633,13.283,35.9,26.35c10.233,13.033,29.35,21.917,57.35,26.65
		c27.966,4.733,46.85,18.967,56.65,42.7c9.8,23.7,47.316,36.384,112.55,38.05h-58.775c-33.006-5.58-52.948-16.496-59.825-32.75
		c-10-23.633-29-37.7-57-42.2c-28.066-4.466-47.267-13.183-57.6-26.148c-10.367-12.968-22.417-21.635-36.15-26
		C130.817,760.967,119.417,754.15,110.35,744.95z M90.575,625.975c-1.596-3.325-3.854-5.866-6.775-7.625
		c-6.356-3.84-9.773-8.647-10.25-14.425c1.642,3.181,4.441,5.988,8.4,8.425C86.397,615.071,89.272,619.613,90.575,625.975z
		 M168.7,787.45c-0.034-0.102-0.05-0.2-0.05-0.3c0.2,0.398,0.417,0.8,0.65,1.198L168.7,787.45z M524.3,269.15
		c-2.633,1.567-7.517,3.783-14.649,6.65c-4.733,1.9-10.566,4.15-17.5,6.75l-10.45,3.75c-17.2,5.367-30.083,9.467-38.65,12.3
		c-15.367,4.9-28.35,10.15-38.95,15.75c-6.3,3.233-11.05,5.95-14.25,8.15c-5.633,3.9-9.517,6.967-11.65,9.2
		c-2.167,2.167-9.184,7.065-21.05,14.7c-6.533,6.667-22.383,16.467-47.55,29.399c-26,13.333-44.867,21.034-56.6,23.101
		c-11.733,2.032-20.033,4.05-24.9,6.05c-4.833,2-10.483,4.133-16.95,6.399c-3.467,1.233-7.967,2.634-13.5,4.2
		c-7.066,2-11.55,3.317-13.45,3.95c-3.267,1.067-5.733,1.917-7.4,2.55c-13.033,4.833-23,11.351-29.9,19.55
		c-1.087,1.333-1.812,2.692-2.175,4.075c-1.283-3.31-0.658-6.484,1.875-9.524c6.967-8.167,17-14.601,30.1-19.301
		c1.667-0.633,4.133-1.467,7.4-2.5c1.9-0.6,6.4-1.866,13.5-3.8c5.533-1.533,10.05-2.899,13.55-4.1c6.467-2.2,12.133-4.284,17-6.25
		c4.867-1.967,13.184-3.917,24.95-5.851c11.733-1.967,30.667-9.5,56.8-22.6c25.3-12.7,41.25-22.35,47.85-28.95
		c11.933-7.533,18.983-12.383,21.15-14.55c2.167-2.2,6.083-5.233,11.75-9.1c3.2-2.167,7.967-4.833,14.3-8
		c10.667-5.5,23.7-10.633,39.1-15.4c8.601-2.767,21.518-6.75,38.75-11.95l10.5-3.65c6.935-2.566,12.784-4.767,17.55-6.6
		c7.167-2.8,12.066-4.983,14.7-6.55c3.053-1.805,5.312-3.613,6.775-5.425C531.161,264.097,528.486,266.622,524.3,269.15z
		 M671.8,202.35V203l-0.3-0.15c-2.733,0.667-6.05,1.433-9.95,2.3c-6.533,1.434-13.85,2.95-21.95,4.55
		c-2.967,0.6-7.732,1.633-14.3,3.1c-6.167,1.367-10.933,2.367-14.3,3c-10.467,2.1-18.7,3.934-24.7,5.5
		c-9.232,2.3-17.649,4.883-25.25,7.75c-4.167,1.567-7.716,3.1-10.649,4.6c-3.967,2-7.483,4.233-10.551,6.7
		c-1.756,1.398-3.215,2.806-4.375,4.225c1.297-2.113,3.256-4.188,5.875-6.225c3.101-2.434,6.634-4.633,10.601-6.6
		c2.966-1.467,6.533-2.967,10.7-4.5c7.633-2.8,16.066-5.317,25.3-7.55c6.033-1.5,14.283-3.25,24.75-5.25
		c3.366-0.633,8.149-1.6,14.35-2.9c6.567-1.4,11.333-2.383,14.3-2.95c8.133-1.533,15.467-3,22-4.4
		C666.562,203.514,669.379,202.897,671.8,202.35z"/>
	<g id="objects">
		<g>
			<path fill="#4ACBF5" d="M214.1,812.951c-4.491,2.59-10.928,2.933-19.31,1.026l-1.311-0.893c-0.451-1.146,0.096-2.092,1.638-2.836
				c-0.327,0.968-0.123,1.66,0.614,2.076c5.406,2.575,10.676,1.234,15.809-4.02C215.8,809.35,216.652,810.896,214.1,812.951z"/>
		</g>
		<g>
			<path fill="#B7AEA1" d="M207.156,803.693c1.185,0.312,2.36,1.358,3.525,3.143c1.165,1.761,1.829,2.562,1.993,2.406
				c1.472,0.803,1.952,1.738,1.44,2.809c-6.561,2.874-12.785,3.176-18.671,0.902c-0.674-1.805-0.766-3.266-0.276-4.379
				c0.491-1.114,2.116-1.716,4.875-1.806l2.606-2.74C204.489,803.471,205.991,803.359,207.156,803.693z"/>
			<path fill="#AD9D89" d="M207.493,808.039c-0.49,0.135-1.093,0.201-1.809,0.201c-0.715,0-1.318-0.066-1.809-0.201
				c-0.491-0.134-0.736-0.289-0.736-0.468c0-0.18,0.245-0.335,0.736-0.469c0.49-0.134,1.093-0.2,1.809-0.2
				c0.716,0,1.319,0.066,1.809,0.2c0.511,0.134,0.767,0.289,0.767,0.469C208.26,807.75,208.004,807.905,207.493,808.039z"/>
			<path fill="#AD9D89" d="M198.387,811.115c1.308-0.09,2.524-0.18,3.648-0.269c1.104-0.09,1.472-0.188,1.104-0.301
				c-0.552-0.268-0.348-0.257,0.613,0.033c0.94,0.289,1.983,0.345,3.127,0.166c1.165-0.178,1.87-0.224,2.116-0.133
				c0.225,0.065-0.327,0.379-1.656,0.936c-1.329,0.558-2.678,0.836-4.047,0.836c-1.39,0-2.565-0.11-3.526-0.334
				c-0.961-0.201-1.441-0.469-1.441-0.803C198.326,811.203,198.347,811.158,198.387,811.115z"/>
			<path fill="#AD9D89" d="M203.14,810.547c0.368,0.111,0,0.211-1.104,0.301c-1.124,0.09-2.34,0.179-3.648,0.269
				c-0.062-0.023-0.112-0.045-0.153-0.068c-0.428-0.135-1.113-0.317-2.054-0.551c-0.94-0.23-1.012-0.392-0.214-0.484
				c0.792-0.093,1.728-0.132,2.805-0.116c1.079,0.013,1.789,0.062,2.131,0.149C201.247,810.134,201.993,810.301,203.14,810.547z"/>
		</g>
		<g>
			<path fill="#4ACBF5" d="M221.756,825.319c-2.679,2.442-6.518,2.766-11.518,0.969l-0.781-0.842
				c-0.269-1.081,0.057-1.974,0.977-2.675c-0.196,0.911-0.074,1.564,0.366,1.959c3.224,2.428,6.367,1.164,9.429-3.791
				C222.77,821.922,223.278,823.382,221.756,825.319z"/>
		</g>
		<g>
			<path fill="#BCB5AC" d="M220.873,821.811c0.877,0.74,1.164,1.604,0.859,2.591c-3.913,2.65-7.625,2.929-11.136,0.832
				c-0.402-1.664-0.458-3.012-0.165-4.039c0.292-1.027,0.927-1.787,1.901-2.281l2.012-1.142c1.092,0.69,2.053,0.892,2.88,0.603
				c0.827-0.292,1.616,0.242,2.368,1.604C220.348,821.341,220.774,821.952,220.873,821.811z M215.625,820.701
				c0.292,0.123,0.652,0.185,1.079,0.185c0.427,0,0.787-0.062,1.079-0.185c0.305-0.124,0.458-0.269,0.458-0.433
				c0-0.165-0.152-0.309-0.458-0.432c-0.292-0.124-0.652-0.186-1.079-0.186c-0.427,0-0.787,0.062-1.079,0.186
				c-0.293,0.123-0.439,0.267-0.439,0.432S215.332,820.577,215.625,820.701z M215.186,823.014c-0.683-0.227-1.127-0.381-1.334-0.463
				s-0.628-0.123-1.262-0.123c-0.646-0.021-1.207,0.01-1.682,0.092c-0.476,0.082-0.433,0.236,0.128,0.464
				c0.561,0.204,0.969,0.368,1.225,0.492c0.024,0.021,0.055,0.04,0.092,0.062c-0.024,0.041-0.037,0.082-0.037,0.123
				c0,0.309,0.287,0.555,0.859,0.74c0.573,0.204,1.274,0.309,2.103,0.309c0.816,0,1.621-0.258,2.414-0.771
				c0.792-0.515,1.121-0.802,0.987-0.863c-0.146-0.082-0.567-0.041-1.262,0.123c-0.683,0.165-1.305,0.112-1.865-0.154
				C214.979,822.776,214.856,822.766,215.186,823.014z"/>
			<path fill="#ADA08D" d="M212.352,823.537c0.78-0.082,1.505-0.164,2.176-0.246c0.658-0.083,0.878-0.176,0.658-0.277
				c-0.329-0.248-0.207-0.236,0.366,0.029c0.561,0.268,1.183,0.319,1.865,0.154c0.694-0.164,1.115-0.205,1.262-0.123
				c0.134,0.062-0.195,0.35-0.987,0.863c-0.793,0.514-1.598,0.771-2.414,0.771c-0.829,0-1.53-0.104-2.103-0.309
				c-0.573-0.187-0.859-0.433-0.859-0.74C212.315,823.619,212.327,823.578,212.352,823.537z"/>
			<path fill="#ADA08D" d="M215.625,820.701c-0.293-0.124-0.439-0.269-0.439-0.433c0-0.165,0.146-0.309,0.439-0.432
				c0.292-0.124,0.652-0.186,1.079-0.186c0.427,0,0.787,0.062,1.079,0.186c0.305,0.123,0.458,0.267,0.458,0.432
				c0,0.164-0.152,0.309-0.458,0.433c-0.292,0.123-0.652,0.185-1.079,0.185C216.277,820.886,215.917,820.824,215.625,820.701z"/>
			<path fill="#ADA08D" d="M215.186,823.014c0.22,0.103,0,0.194-0.658,0.277c-0.67,0.082-1.396,0.164-2.176,0.246
				c-0.037-0.021-0.067-0.041-0.092-0.062c-0.256-0.124-0.664-0.288-1.225-0.492c-0.561-0.228-0.604-0.382-0.128-0.464
				c0.475-0.082,1.036-0.112,1.682-0.092c0.634,0,1.054,0.041,1.262,0.123S214.503,822.787,215.186,823.014z"/>
		</g>
	</g>
	<g id="flow_marks">
		<path fill="#36B8F2" d="M184.55,461.45c-2.167,4.134-5.9,6.833-11.2,8.1c13.433-5.2,13.316-12.2-0.35-21
			C182.867,452.983,186.717,457.283,184.55,461.45z M144.55,524.7l0.2,0.2c-0.3,0.032-0.717,0.016-1.25-0.052
			C143.867,524.816,144.217,524.767,144.55,524.7z M161.975,483.1h0.175c-2.12,1.013-4.454,2.263-7,3.75l-0.3-0.148
			c1.667-0.833,3.35-1.685,5.05-2.55C160.611,483.801,161.302,483.45,161.975,483.1z"/>
		<g>
			<path fill="#36B8F2" d="M59.2,767.85v-0.3c1.466,1.102,2.966,2.233,4.5,3.4c24.167,18.466,50.25,30.065,78.25,34.8
				c27.961,4.73,49.028,19.572,63.2,44.525c14.175,24.956,45.875,37.015,95.1,36.175c-8.724,4.353-24.674,4.369-47.85,0.05
				c-33.233-8.467-54.3-22.883-63.2-43.25c-8.9-20.4-27.083-31.9-54.55-34.5c-27.467-2.6-46.367-10.383-56.7-23.35
				C72.217,778.233,65.967,772.383,59.2,767.85z M50.5,747.85c1.966,1.4,6.25,3.742,12.85,7.025s20.8,11.842,42.6,25.675v0.3
				c-5.467-3.666-11.267-6.481-17.4-8.448c-13.733-4.435-25.133-11.25-34.2-20.45C52.95,750.55,51.667,749.184,50.5,747.85z"/>
		</g>
		<g>
			<path fill="#36B8F2" d="M56.6,537.075c0.304,1.384-2.996,4.06-9.9,8.023c-6.901,3.968-14.118,7.666-21.65,11.102
				c-7.6,3.398-12.483,9.683-14.65,18.85c-1.784,7.409-4.918,13.333-9.4,17.775V586.6c3.563-3.881,6.03-8.514,7.4-13.898
				c1.934-7.602,6.733-13.602,14.4-18c7.633-4.366,14.767-7.967,21.4-10.8C49.137,541.802,53.27,539.527,56.6,537.075z"/>
		</g>
		<g>
			<path fill="#36B8F2" d="M16,719.35c-4.133-2.766-8.183-9.8-12.15-21.1c-3.4-12.3-3.767-22.517-1.1-30.65
				C-0.15,680.233,4.267,697.483,16,719.35z"/>
		</g>
		<g>
			<path fill="#36B8F2" d="M20.826,546.508c6.485-2.025,13.046-5.637,19.684-10.83c10.006-7.803,19.278-12.932,27.815-15.39
				c-3.344,1.875-6.954,4.23-10.83,7.067C43.259,537.742,31.035,544.127,20.826,546.508z"/>
		</g>
		<g>
			<path fill="#36B8F2" d="M125.95,483.1c10.733-3.565,19.966-4.698,27.7-3.398c-11.8-1.102-26.917,3.616-45.35,14.148
				C110.3,490.584,116.183,487,125.95,483.1z"/>
		</g>
	</g>
</g>
<g id="black_x5F_river">
	<path id="river_flow" fill="#00AAED" d="M1257.301,243.3v36.1c-34.667-14.1-63.768-23-87.301-26.7
		c-23.566-3.733-42.633-6.6-57.199-8.6c-14.601-2-22.018-3-22.25-3c-3.934-0.466-7.934-0.883-12-1.25
		c-11.533-1.133-23.768-2.1-36.701-2.9c-14.565-0.933-31.148-1.717-49.75-2.35c-44.6-1-82.315-1.667-113.148-2
		c-30.833-0.367-57.018-1.867-78.55-4.5c-21.567-2.633-37.935-4.683-49.101-6.15c-14.667-1.9-27.85-4.1-39.55-6.6
		c-25.761-5.447-43.995-13.805-54.7-25.075c-0.644-0.679-2.811-2.071-6.5-4.175c4.018-1.21,8.4-1.627,13.15-1.25l-1.1,0.35
		c-1.168,0.067-1.051,0.8,0.35,2.2c1.367,1.433,5.267,4.267,11.7,8.5c6.433,4.2,19.565,8.633,39.399,13.3
		c19.833,4.667,44.851,8.383,75.051,11.15c30.166,2.767,57.332,4.233,81.5,4.4c24.134,0.133,43.399-0.184,57.801-0.95
		c14.367-0.767,34.199-0.7,59.5,0.2c25.267,0.9,45.133,1.4,59.6,1.5c20.434,0.1,38.783,0.433,55.051,1
		c16.232,0.533,30.732,2.1,43.5,4.7c12.767,2.6,30.717,4.133,53.851,4.6C1223.033,236.233,1242.167,238.733,1257.301,243.3z"/>
	<path id="riparian_zone" fill="#51CEF4" d="M1257.25,273.325l0.051,6.075c-0.045-0.018-0.087-0.035-0.125-0.05L1257.25,273.325z
		 M1257.301,243.3v3.85c-15.134-4.633-34.268-7.217-57.399-7.75c-23.135-0.6-41.066-2.217-53.802-4.85
		c-12.766-2.667-27.266-4.3-43.5-4.9c-16.266-0.633-34.615-1.05-55.049-1.25c-14.467-0.167-34.334-0.75-59.601-1.75
		c-25.268-1.033-45.102-1.2-59.5-0.5c-14.399,0.733-33.667,0.967-57.8,0.7c-24.167-0.267-51.316-1.85-81.45-4.75
		c-30.2-2.9-55.2-6.733-75-11.5c-19.833-4.733-32.95-9.216-39.351-13.45c-6.433-4.267-10.315-7.117-11.649-8.55
		c-1.4-1.4-2.15-2.133-2.25-2.2l0.175-0.1h0.725c0.305,0.304,0.672,0.67,1.101,1.1c1.367,1.433,5.267,4.267,11.7,8.5
		c6.433,4.2,19.565,8.633,39.399,13.3c19.833,4.667,44.851,8.383,75.05,11.15c30.167,2.767,57.333,4.233,81.5,4.4
		c24.135,0.133,43.4-0.184,57.802-0.95c14.366-0.767,34.198-0.7,59.5,0.2c25.267,0.9,45.133,1.4,59.6,1.5
		c20.434,0.1,38.783,0.433,55.051,1c16.232,0.533,30.732,2.1,43.5,4.7c12.767,2.6,30.716,4.133,53.851,4.6
		C1223.033,236.233,1242.167,238.733,1257.301,243.3z"/>
</g>
<path fill="#00AAED" d="M1199.9,235.8c-23.131-0.47-41.08-2-53.851-4.6c-12.76-2.6-27.26-4.17-43.5-4.7
	c-16.26-0.57-34.609-0.9-55.05-1c-14.46-0.1-34.33-0.6-59.6-1.5c-25.301-0.9-45.131-0.97-59.5-0.2
	c-14.4,0.77-33.66,1.08-57.801,0.95c-21.47-0.15-45.3-1.32-71.51-3.52v6.71c0.43,0.05,0.87,0.11,1.311,0.16
	c21.529,2.63,47.72,4.13,78.55,4.5c30.83,0.33,68.55,1,113.149,2c18.601,0.63,35.181,1.42,49.75,2.35
	c12.931,0.8,25.17,1.77,36.7,2.9c4.07,0.37,8.07,0.78,12,1.25c0.23,0,7.65,1,22.25,3c14.57,2,33.63,4.87,57.2,8.6
	c23.53,3.7,52.63,12.6,87.3,26.7v-36.1C1242.17,238.73,1223.03,236.23,1199.9,235.8z M413.9,892.5
	c-65.23-1.67-102.75-14.35-112.55-38.05c-9.8-23.73-28.68-37.97-56.65-42.7c-28-4.73-47.12-13.62-57.35-26.65
	c-10.27-13.069-22.23-21.85-35.9-26.35c-13.7-4.53-25.05-11.45-34.05-20.75c-6.1-6.3-10.15-11.78-12.15-16.45
	c-19.87-29.7-24.83-54.62-14.9-74.75c2.73-17.87-0.07-29.35-8.4-34.45c-9.37-5.77-12.27-13.619-8.7-23.55
	c3.57-9.97,16.25-20.22,38.05-30.75c21.8-10.569,28.15-20.1,19.05-28.6c-9.1-8.53-14.07-15.17-14.9-19.9
	c-0.48-2.649,1.59-5.31,6.23-7.96H67.65c-1.99,3.74-5.44,6.76-10.35,9.061c-8.87,4.1-18.08,6.779-27.65,8.05
	c-9.57,1.27-16.5,3.2-20.8,5.8c-3.33,1.97-5.95,4.87-7.85,8.7v246.85c2,12.37,8,21.62,18,27.75c27.33,13.53,40.67,28.5,40,44.9
	c-1,15,9.87,28.27,32.6,39.8h159.65l-0.05-0.05l0.1,0.05H413.9z M175.4,781.05c-0.03-0.1-0.05-0.2-0.05-0.3
	c0.2,0.4,0.42,0.8,0.65,1.2L175.4,781.05z"/>
</svg>
