<?xml version="1.0" encoding="utf-8"?>
<!-- Generator: Adobe Illustrator 15.0.0, SVG Export Plug-In . SVG Version: 6.00 Build 0)  -->
<!DOCTYPE svg PUBLIC "-//W3C//DTD SVG 1.1//EN" "http://www.w3.org/Graphics/SVG/1.1/DTD/svg11.dtd">
<svg version="1.1" xmlns="http://www.w3.org/2000/svg" xmlns:xlink="http://www.w3.org/1999/xlink" x="0px" y="0px"
	 width="1584px" height="893px" viewBox="0 0 1584 893" enable-background="new 0 0 1584 893" xml:space="preserve" id="drawing">
<image overflow="visible" width="1255" height="834" xlink:href="background.png"  transform="matrix(0.9999 0 0 0.9999 0 59.1045)">
</image>
<image overflow="visible" width="44" height="22" xlink:href="ship.png"  transform="matrix(0.9999 0 0 0.9999 -46.9951 186.502)" id="ship">
</image>
<image overflow="visible" width="376" height="221" xlink:href="watertreatment.png"  transform="matrix(1 0 0 1 80 621.9463)">
</image>
<image overflow="visible" width="123" height="65" xlink:href="agriculture.png"  transform="matrix(1 0 0 1 1116.9004 257.5059)">
</image>
<image overflow="visible" width="1584" height="893" xlink:href="powerlines_lit.png"  transform="matrix(0.9999 0 0 0.9999 -1327.8018 996.4639)">
</image>
<image overflow="visible" width="20" height="18" xlink:href="spark.png"  transform="matrix(0.9999 0 0 0.9999 -370.0156 599.0029)">
</image>
<image overflow="visible" width="398" height="319" xlink:href="town.png"  transform="matrix(1 0 0 1 288.7817 214.502)">
</image>
<image overflow="visible" width="460" height="483" xlink:href="vegetation.png"  transform="matrix(1 0 0 1 0 410)">
</image>
<image overflow="visible" width="1584" height="893" xlink:href="water_lines.png" >
</image>
<image overflow="visible" width="130" height="162" xlink:href="water_tower.png"  transform="matrix(1 0 0 1 728.3218 159.5)">
</image>
<g>
	
		<image overflow="visible" width="67" height="84" xlink:href="wind_turbine_base.png"  transform="matrix(1 0 0 1 8.2495 251.0059)">
	</image>
</g>
<image overflow="visible" width="43" height="39" xlink:href="wind_turbine_blades.png"  transform="matrix(0.9999 0 0 0.9999 22.2524 260.834)" id="blades">
</image>
<image overflow="visible" width="408" height="177" xlink:href="park.png"  transform="matrix(1 0 0 1 491.3223 431.002)">
</image>
<image overflow="visible" width="435" height="231" xlink:href="houses.png"  transform="matrix(1 0 0 1 519.3208 583.5)">
</image>
<image overflow="visible" width="321" height="272" xlink:href="college.png"  transform="matrix(1 0 0 1 876.3213 291.002)">
</image>
<image overflow="visible" width="152" height="50" xlink:href="reservoir.png"  transform="matrix(1 0 0 1 844.3223 226.5078)">
</image>
<image overflow="visible" width="164" height="156" xlink:href="smokestack/smokestack2.png"  transform="matrix(1 0 0 1 -339.6055 284.5039)">
</image>
<image overflow="visible" width="1584" height="893" xlink:href="powerlines.png"  transform="matrix(0.9999 0 0 0.9999 0 0)">
</image>
<g>
	<image overflow="visible" width="25" height="21" xlink:href="smoke.png"  transform="matrix(0.9999 0 0 0.9999 107 228.501)">
	</image>
	<image overflow="visible" width="228" height="90" xlink:href="power_plant.png"  transform="matrix(1 0 0 1 79.394 292.5059)">
	</image>
	
		<image overflow="visible" width="164" height="156" xlink:href="smokestack/smokestack1.png"  transform="matrix(1 0 0 1 107 161)">
	</image>
	
		<image overflow="visible" width="164" height="156" xlink:href="smokestack/smokestack1.png"  transform="matrix(1 0 0 1 140 161)">
	</image>
	
		<image overflow="visible" width="164" height="156" xlink:href="smokestack/smokestack1.png"  transform="matrix(1 0 0 1 174 161)">
	</image>
</g>
<image overflow="visible" width="144" height="68" xlink:href="city.png"  transform="matrix(1 0 0 1 1068.9277 145.502)">
</image>
<g>
	<path fill="#231F20" d="M1254.843,59.104V893H0V59.104H1254.843 M1257.843,56.104h-3H0h-3v3V893v3h3h1254.843h3v-3V59.104V56.104
		L1257.843,56.104z"/>
</g>

<script type="text/javascript" xlink:href="../js/vendor/jquery-ui-1.10.4/js/jquery-1.10.2.js"></script>
<script type="text/javascript" xlink:href="../js/vendor/svg.js"></script>
<script type="text/javascript">
  <![CDATA[
    var draw = SVG('drawing');

    SVG.get("ship").animate().move(1350, -50);
  ]]>
</script>
</svg>
