<?xml version="1.0" encoding="utf-8"?>
<!-- Generator: Adobe Illustrator 15.0.0, SVG Export Plug-In . SVG Version: 6.00 Build 0)  -->
<!DOCTYPE svg PUBLIC "-//W3C//DTD SVG 1.1//EN" "http://www.w3.org/Graphics/SVG/1.1/DTD/svg11.dtd">
<svg version="1.1" id="Selected_Items" xmlns="http://www.w3.org/2000/svg" xmlns:xlink="http://www.w3.org/1999/xlink" x="0px"
	 y="0px" width="1584px" height="893px" viewBox="0 0 1584 893" enable-background="new 0 0 1584 893" xml:space="preserve">
<g id="pipes_x5F_freshwater">
	<g id="shadows" display="none">
		<g display="inline" opacity="0.2">
			<path fill-rule="evenodd" clip-rule="evenodd" d="M1072.8,239.2l-68.35,13.95v0.05c-7.4,1.9-13.47,2.57-18.2,2
				c-2.6-0.27-4.68-0.48-6.25-0.65l-4.9,4.85c4,0.37,7.28,0.68,9.851,0.95c5.53,0.5,12.28-0.28,20.25-2.35v-0.05l80.35-17.4
				L1072.8,239.2z M899.25,245.2c-5.77-0.5-12.8,0.28-21.1,2.35l0.6,4.8c8.93-2.57,15.22-3.58,18.85-3.05
				c3.631,0.5,5.9,1.07,6.801,1.7l5.149-4.85C905.38,245.78,901.95,245.47,899.25,245.2z M854.95,254.7
				c-66.5,17.03-94.62,36.15-84.35,57.35c2.03-21.33,32.5-39.58,91.4-54.75L854.95,254.7z M986.7,682.93
				c0.33,0.88,0.64,1.75,0.93,2.62h0.72L986.7,682.93z"/>
			<path fill-rule="evenodd" clip-rule="evenodd" d="M875.15,762.1c-31.5,0.23-56.301,0.351-74.4,0.351l0.2-9.851l74.35,0.051
				c82.521-4.431,116.58-26.91,102.181-67.45l-76.23-120.7h0.05l-68.35-108.7c0.069,0.07,0.13,0.13,0.2,0.2l-21.5-33.45
				c-4.17-5.27-11.33-9.28-21.5-12.05h0.05c-21.37-7.5-31.92-18.3-31.65-32.4v-26.55c-3.9,3.77-9.03,7.1-15.4,10l-56.65,26.7
				c-9.73,5.13-18.28,7.82-25.65,8.05c-3.57-0.03-6.78-0.03-9.65,0c0.23-3.47,0.63-6.75,1.2-9.85c2.07-0.03,4.88-0.05,8.45-0.05
				c6.57,0.07,14.52-2.38,23.85-7.35l54.6-25.65c12.47-5.53,18.83-13.55,19.1-24.05v-6.85h8.4l-0.55-0.3h3.7l-0.45,0.3h0.4v8
				c0.63,9.93,6.97,17.57,19,22.9l75.3,35.4v-0.05c0.17,0.1,0.33,0.18,0.5,0.25l0.05,0.05l0.45,0.2v0.05
				c9,4.67,16.68,6.97,23.05,6.9h65.6v9.9H895.2c-2.13-0.03-4.45-0.03-6.95,0c-7.27-0.27-15.65-2.88-25.15-7.85l-78.05-36.7
				c-5.93-2.7-10.8-5.78-14.6-9.25v25.8c0.13,10.67,8.4,18.77,24.8,24.3c0.03,0,0.08,0.02,0.15,0.05
				c12.369,4.33,20.33,9.43,23.899,15.3v-0.05L908.9,559.75v-0.05l19.479,30.85l58.32,92.38c0.33,0.88,0.64,1.75,0.93,2.62
				C1003.05,731.09,965.55,756.61,875.15,762.1z"/>
		</g>
		<g display="inline">
			<path opacity="0.2" fill-rule="evenodd" clip-rule="evenodd" d="M986.7,682.93l-58.32-92.38h2.271l38.8,60.851h-0.05l5.649,8.949
				c2,3.131,3.83,6.23,5.5,9.301C983.05,674.25,985.1,678.68,986.7,682.93z"/>
		</g>
	</g>
	<g id="water">
		<g>
			<path fill-rule="evenodd" clip-rule="evenodd" fill="#B4F0FE" d="M975.6,655.4l-5.6-8.851h0.05l-57.85-91.3v0.05L822.6,413.85
				v0.05c-3.569-5.87-11.529-10.95-23.899-15.25c-0.07-0.03-0.12-0.05-0.15-0.05c-16.4-5.53-24.67-13.6-24.8-24.2v-25.7
				c3.8,3.43,8.67,6.5,14.6,9.2l78.05,36.55c9.5,4.97,17.88,7.57,25.149,7.8c2.5-0.03,4.82-0.03,6.95,0h58.7v-9.85h-65.65
				c-6.37,0.07-14.05-2.22-23.05-6.85v-0.05l-0.45-0.2l-0.05-0.05c-0.17-0.07-0.33-0.15-0.5-0.25v0.05l-75.3-35.25
				c-12.03-5.33-18.37-12.95-19-22.85V319h-0.4l0.2-0.15h-0.35v0.25h-5.5V319h-5.45v6.85c-0.27,10.43-6.63,18.42-19.1,23.95
				L688,375.35c-9.33,4.93-17.28,7.37-23.85,7.3c-3.57,0-6.38,0.02-8.45,0.05c-0.57,3.1-0.97,6.37-1.2,9.8
				c2.87-0.03,6.08-0.03,9.65,0c7.37-0.23,15.92-2.9,25.65-8l56.65-26.6c6.37-2.9,11.5-6.22,15.4-9.95v26.45
				c-0.27,14.03,10.28,24.78,31.65,32.25h-0.05c10.17,2.77,17.33,6.77,21.5,12l37.3,59.8c-1.1-2.07-2.13-4.021-3.1-5.851
				l55.449,87.45h-0.05l28.65,45.15h-0.05l34.85,55h0.05c0.9,1.5,1.78,2.979,2.65,4.45c28.93,50.1-2.25,77.619-93.55,82.55
				l-73.2-0.05l-0.4,9.8c17.87,0,42.351-0.12,73.45-0.351c99.1-6.069,133.77-36.72,104-91.949
				C979.37,661.62,977.57,658.53,975.6,655.4z M846.65,467.25c0.029,0.27,0.08,0.55,0.149,0.85
				C846.33,467.2,846.28,466.92,846.65,467.25z"/>
			<path fill-rule="evenodd" clip-rule="evenodd" fill="#B4F0FE" d="M1082.25,239.75l-71.45,15.75v0.05
				c-7.729,2.07-14.28,2.85-19.649,2.35c-2.49-0.27-29.53-3.3-81.101-9.1c-3.95-0.52-6.76-0.91-8.399-1.15
				c-3.94-0.63-17.15,2.1-39.62,8.18l0.02,0.02c-56.8,14.23-86.2,31.47-88.2,51.7c-10.02-20.08,17.39-38.18,82.25-54.3l-0.55,0.05
				c25.23-6.77,40.021-10.02,44.351-9.75c3.239,0.17,6.42,0.51,9.55,1l2.649,0.3c51.03,5,77.801,7.63,80.301,7.9
				c4.6,0.57,10.479-0.08,17.649-1.95v-0.05l55.601-12.3L1082.25,239.75z"/>
		</g>
	</g>
</g>
<g id="pipes_x5F_wastewater">
	<g id="shadow" display="none">
		<g display="inline" opacity="0.2">
			<path fill-rule="evenodd" clip-rule="evenodd" d="M1021.699,550.8l12,0.6l25.451,37.4v-0.05l98.25,141.5
				c2.133,3.133,4.033,5.949,5.699,8.449c1.667,2.5,5.1,8.234,10.301,17.2c0.799,1.934,2,4.75,3.6,8.45
				c1.4,4.733,1.483,9.467,0.25,14.2c-6.867,40.8-62.783,66.716-167.75,77.75c-13.033,1.866-28.084,3-45.15,3.399
				c-1.3,0-2.6,0.018-3.9,0.051H568.55c-0.033,0.033-0.066,0.05-0.1,0.05h-8.25c-0.4-0.034-1.083-0.083-2.05-0.15
				c-1-0.066-2-0.1-3-0.1c-1.033,0-7.617-0.817-19.75-2.45c-11.783-1.614-22.549-5.947-32.3-13v0.35
				c-0.833-0.732-1.667-1.467-2.5-2.199c-26.333-23.434-55.05-55.184-86.15-95.25c-0.1-0.033-0.183-0.066-0.25-0.101l0.15-0.1
				c-0.067-0.067-0.867-1.2-2.4-3.4l10.45-6.899l4.8,2.1c8.534,8.867,30.434,13.8,65.7,14.8l156.5,0.3v9.4
				c-16.167,0-32.567,0.017-49.2,0.05c-24.433,0.067-49.933,0.134-76.5,0.2c-41,0.1-69.267-1.7-84.8-5.4
				c16.433,24.101,37,47.467,61.7,70.101c0.833,0.767,1.667,1.533,2.5,2.3v0.15c6.412,6.096,11.496,9.996,15.25,11.699
				c3.966,1.768,9.066,3.417,15.3,4.95c6.2,1.467,17.667,2.7,34.4,3.7H959.9c1.5-0.033,2.982-0.066,4.449-0.1
				c17.301-0.601,32.283-1.734,44.95-3.4v-0.05c101.936-12.332,154.469-37.999,157.601-77h-0.4c-2-9.567-6.483-19.8-13.45-30.7
				c-0.966-1.467-1.95-2.95-2.95-4.45h-0.05l-98.25-141.5h0.05L1021.699,550.8z M389.6,522.5l12.2-0.4L371.3,562
				c-0.066,0.066-0.117,0.133-0.15,0.199c-8,10.566-5.933,18.634,6.2,24.2v-0.05l76.2,37.7V624
				c49.3,22.366,53.067,45.516,11.3,69.449h-0.05l-28.7,16.45l-0.05-2.55H436l-0.05-8.4l-1.3-1.6l17.25-9.45
				c34.767-17.2,35.383-33.95,1.85-50.25l-0.05-2.55v2.5l-87.35-43.1c-0.034,0-0.067-0.018-0.1-0.051
				c-15.733-7.467-18.033-18.266-6.9-32.399h0.05L389.6,522.5z"/>
		</g>
	</g>
	<g id="poop">
		<g>
			<path fill-rule="evenodd" clip-rule="evenodd" fill="#E2D1C7" d="M414.44,741.37c-0.09-0.021-0.18-0.05-0.27-0.07l0.14-0.09
				C414.36,741.27,414.4,741.32,414.44,741.37z"/>
		</g>
		<g>
			<path fill-rule="evenodd" clip-rule="evenodd" fill="#E2D1C7" d="M414.79,740.9l-0.48,0.31c-0.05-0.07-0.11-0.14-0.16-0.21
				L414.79,740.9z"/>
			<path fill-rule="evenodd" clip-rule="evenodd" fill="#E2D1C7" d="M1177.25,773.02c-6.86,40.811-62.77,66.73-167.75,77.78
				c-13.03,1.87-28.08,3-45.15,3.4c-1.3,0-2.6,0.02-3.899,0.05h-391.9c-0.04,0.02-0.08,0.03-0.13,0.05h-8.22
				c-0.4-0.03-1.09-0.08-2.08-0.149c-0.99-0.08-1.99-0.12-3-0.131c-1,0.011-7.58-0.81-19.74-2.449
				c-12.17-1.641-23.24-6.2-33.23-13.67l-0.05-4.65V838c-26.72-23.56-55.94-55.77-87.66-96.63c-0.04-0.05-0.08-0.101-0.13-0.16
				l0.48-0.31l12.41-7.9c5.9,6.14,18.2,10.39,36.9,12.75c8.33,1.06,17.93,1.74,28.8,2.05l156.5,0.3v9.45
				c-12.77,0-25.6,0.021-38.5,0.05H586c-20.08,0.051-40.85,0.101-62.33,0.15c-24.35,0.06-44.21-0.56-59.57-1.85
				c-10.5-0.881-18.89-2.07-25.19-3.57c16.76,24.59,37.82,48.42,63.19,71.52v0.2c6.87,6.63,12.29,10.84,16.25,12.62
				c3.98,1.8,9.07,3.45,15.27,4.95c6.22,1.5,17.69,2.74,34.43,3.729H959.9c1.5-0.029,2.979-0.069,4.449-0.1
				c17.301-0.6,32.28-1.73,44.95-3.4v-0.05c102.49-12.41,155.04-38.3,157.65-77.649c-1.87-7.301-4.78-14.4-8.73-21.301
				c-0.02-0.05-0.05-0.1-0.069-0.149c-1.521-2.851-3.221-5.75-5.101-8.7c-0.97-1.47-1.95-2.95-2.95-4.45h-0.05l-98.25-141.5h0.05
				l-25.55-36.85h10.601l22.25,32.1v-0.05l98.25,141.5c2.13,3.13,4.029,5.95,5.699,8.45s5.101,8.229,10.301,17.2
				c0.8,1.949,2,4.76,3.6,8.449C1178.41,763.57,1178.5,768.29,1177.25,773.02z"/>
		</g>
		<g>
			<path fill-rule="evenodd" clip-rule="evenodd" fill="#E2D1C7" d="M464.85,687.85l-0.06-0.02L436.1,704.3l-0.05-2.55H436l-0.05-3
				c-1.33-1.56-3.26-3.26-5.8-5.1l21.36-11.15c0.13-0.07,0.26-0.13,0.39-0.2c34.76-17.189,35.37-33.939,1.85-50.25l-0.05-3.41V632
				l-87.35-43.1l-0.1-0.051c-15.74-7.47-18.05-18.26-6.9-32.399h0.01L387.6,519.6h11.9L371.3,556.4l-0.15,0.199
				c-7.99,10.58-5.92,18.641,6.18,24.17l0.02-0.02l76.2,37.7v-0.05C502.86,640.77,506.62,663.92,464.85,687.85z"/>
		</g>
	</g>
</g>
</svg>
